<svg width="134" height="132" viewBox="0 0 134 132" fill="none" xmlns="http://www.w3.org/2000/svg">
<rect width="134" height="132" fill="#FBBF24"/>
<path d="M44.4961 22.834L43.959 21.6738C44.3457 21.4876 44.7253 21.2907 45.0977 21.083C45.4701 20.8753 45.8281 20.6497 46.1719 20.4062C46.9167 19.8691 47.5075 19.3141 47.9443 18.7412C48.3883 18.1683 48.7536 17.556 49.04 16.9043C49.3265 16.2526 49.6022 15.5472 49.8672 14.7881C50.2324 13.7425 50.5869 12.8796 50.9307 12.1992C51.2816 11.5117 51.7936 10.946 52.4668 10.502L53.0469 11.4365C52.7389 11.637 52.4811 11.8913 52.2734 12.1992C52.0729 12.5072 51.8867 12.901 51.7148 13.3809C51.543 13.8535 51.3424 14.4479 51.1133 15.1641C50.7982 16.1523 50.4508 17.0225 50.0713 17.7744C49.6989 18.5192 49.262 19.1852 48.7607 19.7725C48.2594 20.3597 47.6543 20.9147 46.9453 21.4375C46.5729 21.7168 46.179 21.9674 45.7637 22.1895C45.3483 22.4115 44.9258 22.6263 44.4961 22.834ZM63.1016 29.0322C61.7409 28.5094 60.348 27.8757 58.9229 27.1309C57.4977 26.3861 56.1048 25.5625 54.7441 24.6602C53.3835 23.7507 52.1016 22.791 50.8984 21.7812C49.7025 20.7643 48.639 19.7223 47.708 18.6553C46.777 17.5882 46.0394 16.5212 45.4951 15.4541L46.6338 14.8525C47.1494 15.8623 47.8548 16.8792 48.75 17.9033C49.6452 18.9202 50.6729 19.9157 51.833 20.8896C53.0003 21.8564 54.2393 22.7767 55.5498 23.6504C56.8675 24.5169 58.2067 25.3083 59.5674 26.0244C60.9352 26.7334 62.2637 27.335 63.5527 27.8291L63.1016 29.0322ZM54.4111 32.2764C53.8311 31.5459 53.2975 30.776 52.8105 29.9668C52.3236 29.1647 51.9297 28.3483 51.6289 27.5176C51.3353 26.6868 51.1885 25.874 51.1885 25.0791C51.1885 23.9476 51.4212 22.9844 51.8867 22.1895C52.3522 21.3874 52.986 20.7393 53.7881 20.2451C54.5973 19.7438 55.5176 19.3786 56.5488 19.1494C57.5801 18.9131 58.6579 18.7949 59.7822 18.7949C60.8063 18.7949 61.8268 18.863 62.8438 18.999C63.8678 19.1279 64.8776 19.2998 65.873 19.5146L65.5938 20.7822C64.6413 20.5745 63.6781 20.4062 62.7041 20.2773C61.7373 20.1484 60.7633 20.084 59.7822 20.084C58.8584 20.084 57.9596 20.1699 57.0859 20.3418C56.2122 20.5065 55.4281 20.7822 54.7334 21.1689C54.0459 21.5557 53.498 22.0677 53.0898 22.7051C52.6816 23.3424 52.4775 24.1302 52.4775 25.0684C52.4775 25.8203 52.6279 26.583 52.9287 27.3564C53.2367 28.1299 53.6305 28.8854 54.1104 29.623C54.5902 30.3607 55.0915 31.0553 55.6143 31.707L54.4111 32.2764ZM47.8047 29.0322L46.5586 28.3232C46.6875 27.1058 46.9811 25.917 47.4395 24.7568C47.8978 23.5895 48.4635 22.4759 49.1367 21.416C49.8171 20.349 50.5439 19.3571 51.3174 18.4404C52.1266 17.488 53.0397 16.5641 54.0566 15.6689C55.0736 14.7738 56.1693 14.0003 57.3438 13.3486C58.5182 12.6969 59.7321 12.2601 60.9854 12.0381L61.2002 13.3057C60.0544 13.5133 58.9408 13.9251 57.8594 14.541C56.778 15.1569 55.7646 15.8838 54.8193 16.7217C53.874 17.5596 53.0326 18.4154 52.2949 19.2891C51.5358 20.1842 50.8268 21.1582 50.168 22.2109C49.5091 23.2565 48.9648 24.3558 48.5352 25.5088C48.1126 26.6618 47.8691 27.8363 47.8047 29.0322ZM54.9053 32.7598C53.3441 32.7598 51.8796 32.4661 50.5117 31.8789C49.151 31.2988 47.9515 30.4896 46.9131 29.4512C45.8818 28.4199 45.0726 27.224 44.4854 25.8633C43.9053 24.4954 43.6152 23.0345 43.6152 21.4805C43.6152 19.9193 43.9053 18.4583 44.4854 17.0977C45.0726 15.737 45.8818 14.541 46.9131 13.5098C47.9515 12.4714 49.151 11.6621 50.5117 11.082C51.8796 10.4948 53.3441 10.2012 54.9053 10.2012C56.4593 10.2012 57.9167 10.4948 59.2773 11.082C60.638 11.6621 61.834 12.4714 62.8652 13.5098C63.9036 14.541 64.7129 15.737 65.293 17.0977C65.8802 18.4583 66.1738 19.9193 66.1738 21.4805C66.1738 23.0345 65.8802 24.4954 65.293 25.8633C64.7129 27.224 63.9036 28.4199 62.8652 29.4512C61.834 30.4896 60.638 31.2988 59.2773 31.8789C57.9167 32.4661 56.4593 32.7598 54.9053 32.7598ZM54.9053 31.4707C56.2803 31.4707 57.5693 31.2129 58.7725 30.6973C59.9827 30.1816 61.0462 29.4655 61.9629 28.5488C62.8796 27.6322 63.5957 26.5723 64.1113 25.3691C64.627 24.1589 64.8848 22.8626 64.8848 21.4805C64.8848 20.0911 64.6234 18.7949 64.1006 17.5918C63.585 16.3815 62.8688 15.3216 61.9521 14.4121C61.0355 13.4954 59.9756 12.7793 58.7725 12.2637C57.5693 11.748 56.2803 11.4902 54.9053 11.4902C53.5303 11.4902 52.2376 11.748 51.0273 12.2637C49.8171 12.7793 48.7536 13.4954 47.8369 14.4121C46.9202 15.3216 46.2005 16.3815 45.6777 17.5918C45.1621 18.7949 44.9043 20.0911 44.9043 21.4805C44.9043 22.8626 45.1621 24.1589 45.6777 25.3691C46.1934 26.5723 46.9095 27.6322 47.8262 28.5488C48.7428 29.4655 49.8063 30.1816 51.0166 30.6973C52.2269 31.2129 53.5231 31.4707 54.9053 31.4707Z" fill="black"/>
<path d="M74.7031 92.0938C71.1875 92.0938 68.0469 91.3086 65.2812 89.7383C62.5391 88.168 60.3711 85.9883 58.7773 83.1992C57.207 80.4102 56.4219 77.1992 56.4219 73.5664C56.4219 71.5742 56.6562 69.2305 57.125 66.5352C57.5938 63.8398 58.2383 61.0977 59.0586 58.3086C59.8789 55.4961 60.8047 52.9414 61.8359 50.6445C61.8359 49.1211 62.9258 47.8789 65.1055 46.918C67.2852 45.957 70.4844 45.4766 74.7031 45.4766C78.9219 45.4766 82.1211 45.957 84.3008 46.918C86.4805 47.8789 87.5703 49.1211 87.5703 50.6445C88.625 52.9414 89.5508 55.4961 90.3477 58.3086C91.168 61.0977 91.8125 63.8398 92.2812 66.5352C92.75 69.2305 92.9844 71.5742 92.9844 73.5664C92.9844 77.1992 92.1875 80.4102 90.5938 83.1992C89.0234 85.9883 86.8555 88.168 84.0898 89.7383C81.3477 91.3086 78.2188 92.0938 74.7031 92.0938ZM74.7031 119.305C71.8438 119.305 69.2539 119 66.9336 118.391C64.6367 117.805 62.8086 116.926 61.4492 115.754C60.1133 114.605 59.4453 113.211 59.4453 111.57C59.4453 110.234 59.9141 109.086 60.8516 108.125C61.8125 107.164 63.0547 106.367 64.5781 105.734C66.1016 105.102 67.7539 104.633 69.5352 104.328C71.3164 104.023 73.0391 103.871 74.7031 103.871C76.3672 103.871 78.0898 104.023 79.8711 104.328C81.6523 104.633 83.3047 105.102 84.8281 105.734C86.3516 106.367 87.582 107.164 88.5195 108.125C89.4805 109.086 89.9609 110.234 89.9609 111.57C89.9609 113.211 89.2812 114.605 87.9219 115.754C86.5859 116.926 84.7695 117.805 82.4727 118.391C80.1758 119 77.5859 119.305 74.7031 119.305ZM74.7383 115.438C78.4883 115.438 81.2539 115.004 83.0352 114.137C84.8398 113.293 85.7422 112.402 85.7422 111.465C85.7422 110.809 85.2969 110.188 84.4062 109.602C83.5391 109.016 82.2852 108.535 80.6445 108.16C79.0039 107.785 77.0234 107.598 74.7031 107.598C72.4062 107.598 70.4258 107.785 68.7617 108.16C67.1211 108.535 65.8555 109.016 64.9648 109.602C64.0977 110.188 63.6641 110.809 63.6641 111.465C63.6641 112.402 64.5664 113.293 66.3711 114.137C68.1758 115.004 70.9648 115.438 74.7383 115.438ZM74.7031 109.215C73.2031 109.215 71.9023 108.992 70.8008 108.547C69.7227 108.125 69.1836 107.621 69.1836 107.035C69.1836 106.637 69.4297 106.273 69.9219 105.945C70.4375 105.617 71.0938 105.359 71.8906 105.172V91.1094H77.5156V105.172C78.3125 105.359 78.957 105.617 79.4492 105.945C79.9648 106.273 80.2227 106.637 80.2227 107.035C80.2227 107.621 79.6836 108.125 78.6055 108.547C77.5273 108.992 76.2266 109.215 74.7031 109.215ZM74.7031 85.5898C72.4297 85.5898 70.4258 85.0977 68.6914 84.1133C66.9805 83.1055 65.6445 81.6992 64.6836 79.8945C63.7461 78.0898 63.2773 75.9805 63.2773 73.5664C63.2773 72.582 63.3828 71.7969 63.5938 71.2109C63.8281 70.6016 64.0625 70.2969 64.2969 70.2969C64.5312 70.2969 64.8477 70.543 65.2461 71.0352C65.6445 71.5039 66.1484 72.0547 66.7578 72.6875C67.3906 73.2969 68.1523 73.8477 69.043 74.3398C69.9336 74.8086 70.9766 75.043 72.1719 75.043C73.6016 75.043 74.8086 74.7148 75.793 74.0586C76.7773 73.4023 77.7031 72.6406 78.5703 71.7734C79.4609 70.8828 80.457 70.1094 81.5586 69.4531C82.6602 68.7969 84.0312 68.4688 85.6719 68.4688C85.8594 69.6172 85.9766 70.5664 86.0234 71.3164C86.0938 72.0664 86.1289 72.8164 86.1289 73.5664C86.1289 75.9805 85.6484 78.0898 84.6875 79.8945C83.75 81.6992 82.4258 83.1055 80.7148 84.1133C79.0039 85.0977 77 85.5898 74.7031 85.5898ZM74.7031 88.4023C77.5156 88.4023 79.9883 87.793 82.1211 86.5742C84.2773 85.332 85.9531 83.5977 87.1484 81.3711C88.3438 79.1445 88.9414 76.543 88.9414 73.5664C88.9414 71.9023 88.7539 69.9688 88.3789 67.7656C88.0273 65.5391 87.5352 63.2539 86.9023 60.9102C86.2695 58.543 85.5312 56.3164 84.6875 54.2305C83.5156 54.8164 82.0625 55.2734 80.3281 55.6016C78.5938 55.9297 76.7305 56.0938 74.7383 56.0938C72.7227 56.0938 70.8359 55.9297 69.0781 55.6016C67.3438 55.2734 65.8906 54.8164 64.7188 54.2305C63.8984 56.3164 63.1602 58.543 62.5039 60.9102C61.8711 63.2539 61.3672 65.5391 60.9922 67.7656C60.6406 69.9688 60.4648 71.9023 60.4648 73.5664C60.4648 76.543 61.0625 79.1445 62.2578 81.3711C63.4766 83.5977 65.1523 85.332 67.2852 86.5742C69.418 87.793 71.8906 88.4023 74.7031 88.4023ZM74.7031 52.7539C76.8125 52.7539 78.5352 52.6367 79.8711 52.4023C81.2305 52.168 82.2266 51.8867 82.8594 51.5586C83.5156 51.2305 83.8438 50.9258 83.8438 50.6445C83.8438 50.1992 83.0938 49.7891 81.5938 49.4141C80.0938 49.0156 77.7969 48.8164 74.7031 48.8164C71.6094 48.8164 69.3125 49.0156 67.8125 49.4141C66.3125 49.7891 65.5625 50.1992 65.5625 50.6445C65.5625 50.9258 65.8789 51.2305 66.5117 51.5586C67.168 51.8867 68.1641 52.168 69.5 52.4023C70.8594 52.6367 72.5938 52.7539 74.7031 52.7539Z" fill="black"/>
</svg>
