<svg width="180" height="180" viewBox="15 15 150 150" fill="none" xmlns="http://www.w3.org/2000/svg">

<style>
    /* https://web.dev/articles/building/an-adaptive-favicon */
    @media (prefers-color-scheme: dark) {
        #background {
            fill: #282726;
        }
    }
</style>

<rect id="background" width="180" height="180" fill="#f8fafc"/>
<path d="M55.3594 32.7734L54.7734 31.5078C55.1953 31.3047 55.6094 31.0898 56.0156 30.8633C56.4219 30.6367 56.8125 30.3906 57.1875 30.125C58 29.5391 58.6445 28.9336 59.1211 28.3086C59.6055 27.6836 60.0039 27.0156 60.3164 26.3047C60.6289 25.5938 60.9297 24.8242 61.2188 23.9961C61.6172 22.8555 62.0039 21.9141 62.3789 21.1719C62.7617 20.4219 63.3203 19.8047 64.0547 19.3203L64.6875 20.3398C64.3516 20.5586 64.0703 20.8359 63.8438 21.1719C63.625 21.5078 63.4219 21.9375 63.2344 22.4609C63.0469 22.9766 62.8281 23.625 62.5781 24.4062C62.2344 25.4844 61.8555 26.4336 61.4414 27.2539C61.0352 28.0664 60.5586 28.793 60.0117 29.4336C59.4648 30.0742 58.8047 30.6797 58.0312 31.25C57.625 31.5547 57.1953 31.8281 56.7422 32.0703C56.2891 32.3125 55.8281 32.5469 55.3594 32.7734ZM75.6562 39.5352C74.1719 38.9648 72.6523 38.2734 71.0977 37.4609C69.543 36.6484 68.0234 35.75 66.5391 34.7656C65.0547 33.7734 63.6562 32.7266 62.3438 31.625C61.0391 30.5156 59.8789 29.3789 58.8633 28.2148C57.8477 27.0508 57.043 25.8867 56.4492 24.7227L57.6914 24.0664C58.2539 25.168 59.0234 26.2773 60 27.3945C60.9766 28.5039 62.0977 29.5898 63.3633 30.6523C64.6367 31.707 65.9883 32.7109 67.418 33.6641C68.8555 34.6094 70.3164 35.4727 71.8008 36.2539C73.293 37.0273 74.7422 37.6836 76.1484 38.2227L75.6562 39.5352ZM66.1758 43.0742C65.543 42.2773 64.9609 41.4375 64.4297 40.5547C63.8984 39.6797 63.4688 38.7891 63.1406 37.8828C62.8203 36.9766 62.6602 36.0898 62.6602 35.2227C62.6602 33.9883 62.9141 32.9375 63.4219 32.0703C63.9297 31.1953 64.6211 30.4883 65.4961 29.9492C66.3789 29.4023 67.3828 29.0039 68.5078 28.7539C69.6328 28.4961 70.8086 28.3672 72.0352 28.3672C73.1523 28.3672 74.2656 28.4414 75.375 28.5898C76.4922 28.7305 77.5938 28.918 78.6797 29.1523L78.375 30.5352C77.3359 30.3086 76.2852 30.125 75.2227 29.9844C74.168 29.8438 73.1055 29.7734 72.0352 29.7734C71.0273 29.7734 70.0469 29.8672 69.0938 30.0547C68.1406 30.2344 67.2852 30.5352 66.5273 30.957C65.7773 31.3789 65.1797 31.9375 64.7344 32.6328C64.2891 33.3281 64.0664 34.1875 64.0664 35.2109C64.0664 36.0312 64.2305 36.8633 64.5586 37.707C64.8945 38.5508 65.3242 39.375 65.8477 40.1797C66.3711 40.9844 66.918 41.7422 67.4883 42.4531L66.1758 43.0742ZM58.9688 39.5352L57.6094 38.7617C57.75 37.4336 58.0703 36.1367 58.5703 34.8711C59.0703 33.5977 59.6875 32.3828 60.4219 31.2266C61.1641 30.0625 61.957 28.9805 62.8008 27.9805C63.6836 26.9414 64.6797 25.9336 65.7891 24.957C66.8984 23.9805 68.0938 23.1367 69.375 22.4258C70.6562 21.7148 71.9805 21.2383 73.3477 20.9961L73.582 22.3789C72.332 22.6055 71.1172 23.0547 69.9375 23.7266C68.7578 24.3984 67.6523 25.1914 66.6211 26.1055C65.5898 27.0195 64.6719 27.9531 63.8672 28.9062C63.0391 29.8828 62.2656 30.9453 61.5469 32.0938C60.8281 33.2344 60.2344 34.4336 59.7656 35.6914C59.3047 36.9492 59.0391 38.2305 58.9688 39.5352ZM66.7148 43.6016C65.0117 43.6016 63.4141 43.2812 61.9219 42.6406C60.4375 42.0078 59.1289 41.125 57.9961 39.9922C56.8711 38.8672 55.9883 37.5625 55.3477 36.0781C54.7148 34.5859 54.3984 32.9922 54.3984 31.2969C54.3984 29.5938 54.7148 28 55.3477 26.5156C55.9883 25.0312 56.8711 23.7266 57.9961 22.6016C59.1289 21.4688 60.4375 20.5859 61.9219 19.9531C63.4141 19.3125 65.0117 18.9922 66.7148 18.9922C68.4102 18.9922 70 19.3125 71.4844 19.9531C72.9688 20.5859 74.2734 21.4688 75.3984 22.6016C76.5312 23.7266 77.4141 25.0312 78.0469 26.5156C78.6875 28 79.0078 29.5938 79.0078 31.2969C79.0078 32.9922 78.6875 34.5859 78.0469 36.0781C77.4141 37.5625 76.5312 38.8672 75.3984 39.9922C74.2734 41.125 72.9688 42.0078 71.4844 42.6406C70 43.2812 68.4102 43.6016 66.7148 43.6016ZM66.7148 42.1953C68.2148 42.1953 69.6211 41.9141 70.9336 41.3516C72.2539 40.7891 73.4141 40.0078 74.4141 39.0078C75.4141 38.0078 76.1953 36.8516 76.7578 35.5391C77.3203 34.2188 77.6016 32.8047 77.6016 31.2969C77.6016 29.7812 77.3164 28.3672 76.7461 27.0547C76.1836 25.7344 75.4023 24.5781 74.4023 23.5859C73.4023 22.5859 72.2461 21.8047 70.9336 21.2422C69.6211 20.6797 68.2148 20.3984 66.7148 20.3984C65.2148 20.3984 63.8047 20.6797 62.4844 21.2422C61.1641 21.8047 60.0039 22.5859 59.0039 23.5859C58.0039 24.5781 57.2188 25.7344 56.6484 27.0547C56.0859 28.3672 55.8047 29.7812 55.8047 31.2969C55.8047 32.8047 56.0859 34.2188 56.6484 35.5391C57.2109 36.8516 57.9922 38.0078 58.9922 39.0078C59.9922 40.0078 61.1523 40.7891 62.4727 41.3516C63.793 41.9141 65.207 42.1953 66.7148 42.1953Z" fill="#EC003F"/>
<path d="M97.9375 118.625C93.25 118.625 89.0625 117.578 85.375 115.484C81.7188 113.391 78.8281 110.484 76.7031 106.766C74.6094 103.047 73.5625 98.7656 73.5625 93.9219C73.5625 91.2656 73.875 88.1406 74.5 84.5469C75.125 80.9531 75.9844 77.2969 77.0781 73.5781C78.1719 69.8281 79.4062 66.4219 80.7812 63.3594C80.7812 61.3281 82.2344 59.6719 85.1406 58.3906C88.0469 57.1094 92.3125 56.4688 97.9375 56.4688C103.562 56.4688 107.828 57.1094 110.734 58.3906C113.641 59.6719 115.094 61.3281 115.094 63.3594C116.5 66.4219 117.734 69.8281 118.797 73.5781C119.891 77.2969 120.75 80.9531 121.375 84.5469C122 88.1406 122.312 91.2656 122.312 93.9219C122.312 98.7656 121.25 103.047 119.125 106.766C117.031 110.484 114.141 113.391 110.453 115.484C106.797 117.578 102.625 118.625 97.9375 118.625ZM97.9375 154.906C94.125 154.906 90.6719 154.5 87.5781 153.688C84.5156 152.906 82.0781 151.734 80.2656 150.172C78.4844 148.641 77.5938 146.781 77.5938 144.594C77.5938 142.812 78.2188 141.281 79.4688 140C80.75 138.719 82.4062 137.656 84.4375 136.812C86.4688 135.969 88.6719 135.344 91.0469 134.938C93.4219 134.531 95.7188 134.328 97.9375 134.328C100.156 134.328 102.453 134.531 104.828 134.938C107.203 135.344 109.406 135.969 111.438 136.812C113.469 137.656 115.109 138.719 116.359 140C117.641 141.281 118.281 142.812 118.281 144.594C118.281 146.781 117.375 148.641 115.562 150.172C113.781 151.734 111.359 152.906 108.297 153.688C105.234 154.5 101.781 154.906 97.9375 154.906ZM97.9844 149.75C102.984 149.75 106.672 149.172 109.047 148.016C111.453 146.891 112.656 145.703 112.656 144.453C112.656 143.578 112.062 142.75 110.875 141.969C109.719 141.188 108.047 140.547 105.859 140.047C103.672 139.547 101.031 139.297 97.9375 139.297C94.875 139.297 92.2344 139.547 90.0156 140.047C87.8281 140.547 86.1406 141.188 84.9531 141.969C83.7969 142.75 83.2188 143.578 83.2188 144.453C83.2188 145.703 84.4219 146.891 86.8281 148.016C89.2344 149.172 92.9531 149.75 97.9844 149.75ZM97.9375 141.453C95.9375 141.453 94.2031 141.156 92.7344 140.562C91.2969 140 90.5781 139.328 90.5781 138.547C90.5781 138.016 90.9062 137.531 91.5625 137.094C92.25 136.656 93.125 136.312 94.1875 136.062V117.312H101.688V136.062C102.75 136.312 103.609 136.656 104.266 137.094C104.953 137.531 105.297 138.016 105.297 138.547C105.297 139.328 104.578 140 103.141 140.562C101.703 141.156 99.9688 141.453 97.9375 141.453ZM97.9375 109.953C94.9062 109.953 92.2344 109.297 89.9219 107.984C87.6406 106.641 85.8594 104.766 84.5781 102.359C83.3281 99.9531 82.7031 97.1406 82.7031 93.9219C82.7031 92.6094 82.8438 91.5625 83.125 90.7812C83.4375 89.9688 83.75 89.5625 84.0625 89.5625C84.375 89.5625 84.7969 89.8906 85.3281 90.5469C85.8594 91.1719 86.5312 91.9062 87.3438 92.75C88.1875 93.5625 89.2031 94.2969 90.3906 94.9531C91.5781 95.5781 92.9688 95.8906 94.5625 95.8906C96.4688 95.8906 98.0781 95.4531 99.3906 94.5781C100.703 93.7031 101.938 92.6875 103.094 91.5312C104.281 90.3438 105.609 89.3125 107.078 88.4375C108.547 87.5625 110.375 87.125 112.562 87.125C112.812 88.6562 112.969 89.9219 113.031 90.9219C113.125 91.9219 113.172 92.9219 113.172 93.9219C113.172 97.1406 112.531 99.9531 111.25 102.359C110 104.766 108.234 106.641 105.953 107.984C103.672 109.297 101 109.953 97.9375 109.953ZM97.9375 113.703C101.688 113.703 104.984 112.891 107.828 111.266C110.703 109.609 112.938 107.297 114.531 104.328C116.125 101.359 116.922 97.8906 116.922 93.9219C116.922 91.7031 116.672 89.125 116.172 86.1875C115.703 83.2188 115.047 80.1719 114.203 77.0469C113.359 73.8906 112.375 70.9219 111.25 68.1406C109.688 68.9219 107.75 69.5312 105.438 69.9688C103.125 70.4062 100.641 70.625 97.9844 70.625C95.2969 70.625 92.7812 70.4062 90.4375 69.9688C88.125 69.5312 86.1875 68.9219 84.625 68.1406C83.5312 70.9219 82.5469 73.8906 81.6719 77.0469C80.8281 80.1719 80.1562 83.2188 79.6562 86.1875C79.1875 89.125 78.9531 91.7031 78.9531 93.9219C78.9531 97.8906 79.75 101.359 81.3438 104.328C82.9688 107.297 85.2031 109.609 88.0469 111.266C90.8906 112.891 94.1875 113.703 97.9375 113.703ZM97.9375 66.1719C100.75 66.1719 103.047 66.0156 104.828 65.7031C106.641 65.3906 107.969 65.0156 108.812 64.5781C109.688 64.1406 110.125 63.7344 110.125 63.3594C110.125 62.7656 109.125 62.2188 107.125 61.7188C105.125 61.1875 102.062 60.9219 97.9375 60.9219C93.8125 60.9219 90.75 61.1875 88.75 61.7188C86.75 62.2188 85.75 62.7656 85.75 63.3594C85.75 63.7344 86.1719 64.1406 87.0156 64.5781C87.8906 65.0156 89.2188 65.3906 91 65.7031C92.8125 66.0156 95.125 66.1719 97.9375 66.1719Z" fill="#EC003F"/>
</svg>
